<svg width="12" height="13" viewBox="0 0 12 13" fill="none" xmlns="http://www.w3.org/2000/svg">
<path d="M11.8368 11.2393L9.49991 8.70813C9.39444 8.59389 9.25146 8.53042 9.10145 8.53042H8.71939C9.36631 7.63422 9.75071 6.50698 9.75071 5.28073C9.75071 2.36364 7.56852 0 4.87536 0C2.18219 0 0 2.36364 0 5.28073C0 8.19783 2.18219 10.5615 4.87536 10.5615C6.00747 10.5615 7.04817 10.1451 7.87558 9.44439V9.85822C7.87558 10.0207 7.93417 10.1756 8.03965 10.2898L10.3765 12.821C10.5969 13.0597 10.9531 13.0597 11.1711 12.821L11.8345 12.1025C12.0548 11.8639 12.0548 11.478 11.8368 11.2393ZM4.87536 8.53042C3.2182 8.53042 1.87514 7.07822 1.87514 5.28073C1.87514 3.48579 3.21586 2.03105 4.87536 2.03105C6.53251 2.03105 7.87558 3.48325 7.87558 5.28073C7.87558 7.07568 6.53485 8.53042 4.87536 8.53042Z" fill="black"/>
</svg>
